<svg xmlns="http://www.w3.org/2000/svg" xmlns:xlink="http://www.w3.org/1999/xlink" width="500" height="500" preserveAspectRatio="xMidYMid meet" version="1.0" viewBox="0 0 375 375" zoomAndPan="magnify"><defs><clipPath id="b12f4f629c"><path d="M 17.0625 139 L 65 139 L 65 221.390625 L 17.0625 221.390625 Z M 17.0625 139" clip-rule="nonzero"/></clipPath></defs><g clip-path="url(#b12f4f629c)"><path fill="#0edf23" fill-opacity="1" fill-rule="nonzero" d="M 23.605469 222.195312 C 22.09375 222.195312 20.582031 221.621094 19.429688 220.464844 C 17.121094 218.15625 17.121094 214.417969 19.429688 212.109375 L 50.703125 180.839844 L 19.429688 149.566406 C 17.121094 147.261719 17.121094 143.519531 19.429688 141.210938 C 21.738281 138.90625 25.476562 138.90625 27.785156 141.210938 L 63.234375 176.660156 C 65.542969 178.96875 65.542969 182.707031 63.234375 185.015625 L 27.785156 220.464844 C 26.628906 221.621094 25.117188 222.195312 23.609375 222.195312 Z M 23.605469 222.195312"/></g><g fill="#fff" fill-opacity="1"><g><g><path d="M 7.1875 -7.1875 L 7.1875 -14.375 L 0 -14.375 L 0 -21.5625 L 14.375 -21.5625 L 14.375 -14.375 L 35.9375 -14.375 L 35.9375 -28.75 L 7.1875 -28.75 L 7.1875 -35.9375 L 0 -35.9375 L 0 -50.3125 L 7.1875 -50.3125 L 7.1875 -57.5 L 43.125 -57.5 L 43.125 -50.3125 L 50.3125 -50.3125 L 50.3125 -43.125 L 35.9375 -43.125 L 35.9375 -50.3125 L 14.375 -50.3125 L 14.375 -35.9375 L 43.125 -35.9375 L 43.125 -28.75 L 50.3125 -28.75 L 50.3125 -14.375 L 43.125 -14.375 L 43.125 -7.1875 Z M 7.1875 -7.1875" transform="translate(71.336762, 215.531688)"/></g></g></g><g fill="#fff" fill-opacity="1"><g><g><path d="M 7.1875 -7.1875 L 7.1875 -14.375 L 0 -14.375 L 0 -43.125 L 14.375 -43.125 L 14.375 -14.375 L 35.9375 -14.375 L 35.9375 -43.125 L 50.3125 -43.125 L 50.3125 -7.1875 Z M 7.1875 -7.1875" transform="translate(128.831959, 215.531688)"/></g></g></g><g fill="#fff" fill-opacity="1"><g><g><path d="M 7.1875 -7.1875 L 7.1875 -14.375 L 0 -14.375 L 0 -35.9375 L 7.1875 -35.9375 L 7.1875 -43.125 L 35.9375 -43.125 L 35.9375 -57.5 L 50.3125 -57.5 L 50.3125 -7.1875 Z M 14.375 -14.375 L 35.9375 -14.375 L 35.9375 -35.9375 L 14.375 -35.9375 Z M 14.375 -14.375" transform="translate(186.327156, 215.531688)"/></g></g></g><g fill="#fff" fill-opacity="1"><g><g><path d="M 7.1875 -7.1875 L 7.1875 -14.375 L 0 -14.375 L 0 -35.9375 L 7.1875 -35.9375 L 7.1875 -43.125 L 43.125 -43.125 L 43.125 -35.9375 L 50.3125 -35.9375 L 50.3125 -14.375 L 43.125 -14.375 L 43.125 -7.1875 Z M 14.375 -14.375 L 35.9375 -14.375 L 35.9375 -35.9375 L 14.375 -35.9375 Z M 14.375 -14.375" transform="translate(243.822353, 215.531688)"/></g></g></g><path fill="none" stroke="#0edf23" stroke-linecap="round" stroke-linejoin="miter" stroke-miterlimit="4" stroke-opacity="1" stroke-width="15" d="M 7.501504 7.499271 L 56.142133 7.499271" transform="matrix(0.75, 0, 0, 0.75, 301.33481, 210.391172)"/></svg>